<svg id="Layer_1" data-name="Layer 1" xmlns="http://www.w3.org/2000/svg" xmlns:xlink="http://www.w3.org/1999/xlink" viewBox="0 0 32 32"><defs><style>.cls-1{fill:url(#linear-gradient);}</style><linearGradient id="linear-gradient" x1="2" y1="15.87" x2="30" y2="15.87" gradientUnits="userSpaceOnUse"><stop offset="0" stop-color="#29abe2" id="id_102"></stop><stop offset="1" stop-color="#39b54a" id="id_103"></stop></linearGradient></defs><title>wind</title><path class="cls-1" d="M30,22a4,4,0,0,1-8,0,1,1,0,0,1,2,0,2,2,0,1,0,2-2H13a1,1,0,0,1,0-2H26A4,4,0,0,1,30,22ZM23,11a1,1,0,0,0,1-1,2,2,0,1,1,2,2H13a1,1,0,0,0,0,2H26a4,4,0,1,0-4-4A1,1,0,0,0,23,11ZM3,11H16a3.91,3.91,0,0,0,2.84-1.23A4.17,4.17,0,0,0,20,6.87a4.07,4.07,0,0,0-4-4.13,1,1,0,0,0,0,2,2.07,2.07,0,0,1,2,2.13,2.18,2.18,0,0,1-.6,1.52A1.93,1.93,0,0,1,16,9H3a1,1,0,0,0,0,2ZM16,21H3a1,1,0,0,0,0,2H16a2,2,0,0,1,0,4,1,1,0,0,0,0,2,4,4,0,0,0,0-8Z" id="id_101"></path></svg>